<svg xmlns="http://www.w3.org/2000/svg" viewBox="0 0 512 512" role="img" aria-labelledby="title desc">
  <title id="title">Temporary GameCoin logo</title>
  <desc id="desc">A neon lime coin with a dark game controller. Replace this file with the final supplied GameCoin logo.</desc>
  <defs>
    <linearGradient id="rim" x1="0" y1="0" x2="1" y2="1">
      <stop offset="0" stop-color="#f2ff99"/>
      <stop offset=".3" stop-color="#ccff00"/>
      <stop offset=".72" stop-color="#92b900"/>
      <stop offset="1" stop-color="#506700"/>
    </linearGradient>
    <radialGradient id="face" cx=".34" cy=".25" r=".82">
      <stop offset="0" stop-color="#e9ff70"/>
      <stop offset=".45" stop-color="#ccff00"/>
      <stop offset="1" stop-color="#8fb500"/>
    </radialGradient>
    <filter id="shadow" x="-30%" y="-30%" width="160%" height="170%">
      <feDropShadow dx="0" dy="18" stdDeviation="16" flood-color="#000" flood-opacity=".42"/>
    </filter>
  </defs>
  <g filter="url(#shadow)">
    <circle cx="256" cy="256" r="226" fill="#344300"/>
    <circle cx="256" cy="246" r="220" fill="url(#rim)"/>
    <circle cx="256" cy="246" r="184" fill="#1c180d" opacity=".2"/>
    <circle cx="256" cy="238" r="176" fill="url(#face)" stroke="#efffa3" stroke-width="8"/>
    <path d="M154 126a174 174 0 0 1 204-7" fill="none" stroke="#fff" stroke-opacity=".42" stroke-width="10" stroke-linecap="round"/>
    <path d="M256 82v24M157 123l17 18M355 123l-17 18M113 220h24M375 220h24M141 349l19-16M371 349l-19-16" stroke="#1c180d" stroke-opacity=".34" stroke-width="8" stroke-linecap="round"/>
    <path d="M166 221c8-43 38-66 83-66h14c45 0 75 23 83 66l15 78c5 27-27 43-45 22l-30-35h-60l-30 35c-18 21-50 5-45-22l15-78Z" fill="#1c180d"/>
    <path d="M213 211v52M187 237h52" stroke="#ccff00" stroke-width="15" stroke-linecap="round"/>
    <circle cx="307" cy="221" r="11" fill="#ccff00"/>
    <circle cx="332" cy="251" r="11" fill="#ccff00"/>
    <path d="M239 286h34" stroke="#ccff00" stroke-opacity=".65" stroke-width="7" stroke-linecap="round"/>
  </g>
</svg>
